<?xml version="1.0" encoding="UTF-8"?>
<!--Generator: Apple Native CoreSVG 123-->
<!DOCTYPE svg
PUBLIC "-//W3C//DTD SVG 1.1//EN"
       "http://www.w3.org/Graphics/SVG/1.1/DTD/svg11.dtd">
<svg version="1.1" xmlns="http://www.w3.org/2000/svg" xmlns:xlink="http://www.w3.org/1999/xlink" width="3300" height="2200">
 <!--glyph: "uni10044E.medium", point size: 100.000000, font version: "Version 15.0d7e11", template writer version: "5"-->
 <g id="Notes">
  <rect height="2200" id="artboard" style="fill:white;opacity:1" width="3300" x="0" y="0"/>
  <line id="" style="fill:none;stroke:black;opacity:1;stroke-width:0.5;" x1="263" x2="3036" y1="292" y2="292"/>
  <text style="stroke:none;fill:black;font-family:-apple-system,&quot;SF Pro Display&quot;,&quot;SF Pro Text&quot;,Helvetica,sans-serif;font-weight:bold;" transform="matrix(1 0 0 1 263 322)">Weight/Scale Variations</text>
  <text style="stroke:none;fill:black;font-family:-apple-system,&quot;SF Pro Display&quot;,&quot;SF Pro Text&quot;,Helvetica,sans-serif;text-anchor:middle;" transform="matrix(1 0 0 1 559.711 322)">Ultralight</text>
  <text style="stroke:none;fill:black;font-family:-apple-system,&quot;SF Pro Display&quot;,&quot;SF Pro Text&quot;,Helvetica,sans-serif;text-anchor:middle;" transform="matrix(1 0 0 1 856.422 322)">Thin</text>
  <text style="stroke:none;fill:black;font-family:-apple-system,&quot;SF Pro Display&quot;,&quot;SF Pro Text&quot;,Helvetica,sans-serif;text-anchor:middle;" transform="matrix(1 0 0 1 1153.13 322)">Light</text>
  <text style="stroke:none;fill:black;font-family:-apple-system,&quot;SF Pro Display&quot;,&quot;SF Pro Text&quot;,Helvetica,sans-serif;text-anchor:middle;" transform="matrix(1 0 0 1 1449.84 322)">Regular</text>
  <text style="stroke:none;fill:black;font-family:-apple-system,&quot;SF Pro Display&quot;,&quot;SF Pro Text&quot;,Helvetica,sans-serif;text-anchor:middle;" transform="matrix(1 0 0 1 1746.56 322)">Medium</text>
  <text style="stroke:none;fill:black;font-family:-apple-system,&quot;SF Pro Display&quot;,&quot;SF Pro Text&quot;,Helvetica,sans-serif;text-anchor:middle;" transform="matrix(1 0 0 1 2043.27 322)">Semibold</text>
  <text style="stroke:none;fill:black;font-family:-apple-system,&quot;SF Pro Display&quot;,&quot;SF Pro Text&quot;,Helvetica,sans-serif;text-anchor:middle;" transform="matrix(1 0 0 1 2339.98 322)">Bold</text>
  <text style="stroke:none;fill:black;font-family:-apple-system,&quot;SF Pro Display&quot;,&quot;SF Pro Text&quot;,Helvetica,sans-serif;text-anchor:middle;" transform="matrix(1 0 0 1 2636.69 322)">Heavy</text>
  <text style="stroke:none;fill:black;font-family:-apple-system,&quot;SF Pro Display&quot;,&quot;SF Pro Text&quot;,Helvetica,sans-serif;text-anchor:middle;" transform="matrix(1 0 0 1 2933.4 322)">Black</text>
  <line id="" style="fill:none;stroke:black;opacity:1;stroke-width:0.5;" x1="263" x2="3036" y1="1903" y2="1903"/>
  <g id="" transform="matrix(1 0 0 1 263 1933)">
   <path d="M 9.24805 0.830078 C 13.5547 0.830078 17.1387 -2.74414 17.1387 -7.05078 C 17.1387 -11.3574 13.5449 -14.9316 9.23828 -14.9316 C 4.94141 -14.9316 1.36719 -11.3574 1.36719 -7.05078 C 1.36719 -2.74414 4.95117 0.830078 9.24805 0.830078 Z M 9.24805 -0.654297 C 5.70312 -0.654297 2.87109 -3.49609 2.87109 -7.05078 C 2.87109 -10.6055 5.69336 -13.4473 9.23828 -13.4473 C 12.793 -13.4473 15.6348 -10.6055 15.6445 -7.05078 C 15.6543 -3.49609 12.8027 -0.654297 9.24805 -0.654297 Z M 9.22852 -3.42773 C 9.69727 -3.42773 9.9707 -3.74023 9.9707 -4.25781 L 9.9707 -6.31836 L 12.1973 -6.31836 C 12.6953 -6.31836 13.0371 -6.57227 13.0371 -7.04102 C 13.0371 -7.51953 12.7148 -7.7832 12.1973 -7.7832 L 9.9707 -7.7832 L 9.9707 -10.0098 C 9.9707 -10.5273 9.69727 -10.8496 9.22852 -10.8496 C 8.75977 -10.8496 8.50586 -10.5078 8.50586 -10.0098 L 8.50586 -7.7832 L 6.29883 -7.7832 C 5.78125 -7.7832 5.44922 -7.51953 5.44922 -7.04102 C 5.44922 -6.57227 5.80078 -6.31836 6.29883 -6.31836 L 8.50586 -6.31836 L 8.50586 -4.25781 C 8.50586 -3.75977 8.75977 -3.42773 9.22852 -3.42773 Z"/>
  </g>
  <g id="" transform="matrix(1 0 0 1 281.506 1933)">
   <path d="M 11.709 2.91016 C 17.1582 2.91016 21.6699 -1.60156 21.6699 -7.05078 C 21.6699 -12.4902 17.1484 -17.0117 11.6992 -17.0117 C 6.25977 -17.0117 1.74805 -12.4902 1.74805 -7.05078 C 1.74805 -1.60156 6.26953 2.91016 11.709 2.91016 Z M 11.709 1.25 C 7.09961 1.25 3.41797 -2.44141 3.41797 -7.05078 C 3.41797 -11.6504 7.08984 -15.3516 11.6992 -15.3516 C 16.3086 -15.3516 20 -11.6504 20.0098 -7.05078 C 20.0195 -2.44141 16.3184 1.25 11.709 1.25 Z M 11.6895 -2.41211 C 12.207 -2.41211 12.5195 -2.77344 12.5195 -3.33984 L 12.5195 -6.23047 L 15.5762 -6.23047 C 16.123 -6.23047 16.5039 -6.51367 16.5039 -7.03125 C 16.5039 -7.55859 16.1426 -7.86133 15.5762 -7.86133 L 12.5195 -7.86133 L 12.5195 -10.9277 C 12.5195 -11.5039 12.207 -11.8555 11.6895 -11.8555 C 11.1719 -11.8555 10.8789 -11.4844 10.8789 -10.9277 L 10.8789 -7.86133 L 7.83203 -7.86133 C 7.26562 -7.86133 6.89453 -7.55859 6.89453 -7.03125 C 6.89453 -6.51367 7.28516 -6.23047 7.83203 -6.23047 L 10.8789 -6.23047 L 10.8789 -3.33984 C 10.8789 -2.79297 11.1719 -2.41211 11.6895 -2.41211 Z"/>
  </g>
  <g id="" transform="matrix(1 0 0 1 304.924 1933)">
   <path d="M 14.9707 5.67383 C 21.9336 5.67383 27.6953 -0.078125 27.6953 -7.04102 C 27.6953 -14.0039 21.9238 -19.7559 14.9609 -19.7559 C 8.00781 -19.7559 2.25586 -14.0039 2.25586 -7.04102 C 2.25586 -0.078125 8.01758 5.67383 14.9707 5.67383 Z M 14.9707 3.85742 C 8.93555 3.85742 4.08203 -1.00586 4.08203 -7.04102 C 4.08203 -13.0762 8.92578 -17.9395 14.9609 -17.9395 C 21.0059 -17.9395 25.8594 -13.0762 25.8691 -7.04102 C 25.8789 -1.00586 21.0156 3.85742 14.9707 3.85742 Z M 14.9512 -1.06445 C 15.5176 -1.06445 15.8691 -1.45508 15.8691 -2.06055 L 15.8691 -6.13281 L 20.1074 -6.13281 C 20.6934 -6.13281 21.1133 -6.46484 21.1133 -7.02148 C 21.1133 -7.59766 20.7227 -7.93945 20.1074 -7.93945 L 15.8691 -7.93945 L 15.8691 -12.1875 C 15.8691 -12.8027 15.5176 -13.1934 14.9512 -13.1934 C 14.3848 -13.1934 14.0625 -12.7832 14.0625 -12.1875 L 14.0625 -7.93945 L 9.83398 -7.93945 C 9.21875 -7.93945 8.80859 -7.59766 8.80859 -7.02148 C 8.80859 -6.46484 9.23828 -6.13281 9.83398 -6.13281 L 14.0625 -6.13281 L 14.0625 -2.06055 C 14.0625 -1.47461 14.3848 -1.06445 14.9512 -1.06445 Z"/>
  </g>
  <text style="stroke:none;fill:black;font-family:-apple-system,&quot;SF Pro Display&quot;,&quot;SF Pro Text&quot;,Helvetica,sans-serif;font-weight:bold;" transform="matrix(1 0 0 1 263 1953)">Design Variations</text>
  <text style="stroke:none;fill:black;font-family:-apple-system,&quot;SF Pro Display&quot;,&quot;SF Pro Text&quot;,Helvetica,sans-serif;" transform="matrix(1 0 0 1 263 1971)">Symbols are supported in up to nine weights and three scales.</text>
  <text style="stroke:none;fill:black;font-family:-apple-system,&quot;SF Pro Display&quot;,&quot;SF Pro Text&quot;,Helvetica,sans-serif;" transform="matrix(1 0 0 1 263 1989)">For optimal layout with text and other symbols, vertically align</text>
  <text style="stroke:none;fill:black;font-family:-apple-system,&quot;SF Pro Display&quot;,&quot;SF Pro Text&quot;,Helvetica,sans-serif;" transform="matrix(1 0 0 1 263 2007)">symbols with the adjacent text.</text>
  <rect height="14" id="" style="fill:#00AEEF;stroke:none;opacity:0.4;" width="3" x="776" y="1919"/>
  <g id="" transform="matrix(1 0 0 1 779 1933)">
   <path d="M 10.5273 0 L 12.373 0 L 7.17773 -14.0918 L 5.43945 -14.0918 L 0.244141 0 L 2.08984 0 L 3.50586 -4.0332 L 9.11133 -4.0332 Z M 6.2793 -11.9531 L 6.33789 -11.9531 L 8.59375 -5.52734 L 4.02344 -5.52734 Z"/>
  </g>
  <rect height="14" id="" style="fill:#00AEEF;stroke:none;opacity:0.4;" width="3" x="791.617" y="1919"/>
  <text style="stroke:none;fill:black;font-family:-apple-system,&quot;SF Pro Display&quot;,&quot;SF Pro Text&quot;,Helvetica,sans-serif;font-weight:bold;" transform="matrix(1 0 0 1 776 1953)">Margins</text>
  <text style="stroke:none;fill:black;font-family:-apple-system,&quot;SF Pro Display&quot;,&quot;SF Pro Text&quot;,Helvetica,sans-serif;" transform="matrix(1 0 0 1 776 1971)">Leading and trailing margins on the left and right side of each symbol</text>
  <text style="stroke:none;fill:black;font-family:-apple-system,&quot;SF Pro Display&quot;,&quot;SF Pro Text&quot;,Helvetica,sans-serif;" transform="matrix(1 0 0 1 776 1989)">can be adjusted by modifying the width of the blue rectangles.</text>
  <text style="stroke:none;fill:black;font-family:-apple-system,&quot;SF Pro Display&quot;,&quot;SF Pro Text&quot;,Helvetica,sans-serif;" transform="matrix(1 0 0 1 776 2007)">Modifications are automatically applied proportionally to all</text>
  <text style="stroke:none;fill:black;font-family:-apple-system,&quot;SF Pro Display&quot;,&quot;SF Pro Text&quot;,Helvetica,sans-serif;" transform="matrix(1 0 0 1 776 2025)">scales and weights.</text>
  <g id="" transform="matrix(1 0 0 1 1289 1933)">
   <path d="M 2.83203 3.11523 L 4.375 4.6582 C 5.22461 5.48828 6.19141 5.41992 7.06055 4.46289 L 17.2754 -6.66016 C 17.7051 -6.36719 18.0957 -6.37695 18.5645 -6.47461 L 19.6094 -6.68945 L 20.3027 -5.99609 L 20.2539 -5.47852 C 20.1855 -4.95117 20.3516 -4.53125 20.8496 -4.0332 L 21.6602 -3.22266 C 22.168 -2.71484 22.8223 -2.68555 23.3008 -3.16406 L 26.5527 -6.41602 C 27.0312 -6.89453 27.0117 -7.54883 26.5039 -8.05664 L 25.6836 -8.87695 C 25.1855 -9.375 24.7754 -9.55078 24.2383 -9.47266 L 23.7109 -9.41406 L 23.0566 -10.0781 L 23.3398 -11.2207 C 23.4863 -11.7871 23.3398 -12.2559 22.7148 -12.8613 L 20.3027 -15.2539 C 16.7578 -18.7793 12.2266 -18.6719 9.11133 -15.5371 C 8.69141 -15.1074 8.64258 -14.5215 8.91602 -14.0918 C 9.15039 -13.7207 9.62891 -13.4961 10.2734 -13.6621 C 11.7871 -14.043 13.3008 -13.9258 14.7852 -12.9199 L 14.1602 -11.3379 C 13.9258 -10.752 13.9453 -10.2734 14.1797 -9.83398 L 3.01758 0.439453 C 2.08008 1.30859 1.97266 2.25586 2.83203 3.11523 Z M 10.6738 -15.1465 C 13.3398 -17.1387 16.6504 -16.8262 19.0527 -14.4141 L 21.6797 -11.8066 C 21.9141 -11.5723 21.9434 -11.3867 21.8848 -11.0938 L 21.5039 -9.53125 L 23.0762 -7.95898 L 24.043 -8.04688 C 24.3262 -8.07617 24.4141 -8.05664 24.6387 -7.83203 L 25.2637 -7.20703 L 22.5098 -4.46289 L 21.8848 -5.07812 C 21.6602 -5.30273 21.6406 -5.40039 21.6699 -5.68359 L 21.7578 -6.64062 L 20.1953 -8.20312 L 18.5742 -7.89062 C 18.291 -7.83203 18.1445 -7.83203 17.9102 -8.07617 L 15.7324 -10.2539 C 15.5078 -10.4883 15.4785 -10.625 15.6055 -10.9473 L 16.5527 -13.2227 C 14.9512 -14.7559 12.8418 -15.6055 10.8008 -14.9512 C 10.7129 -14.9219 10.6445 -14.9414 10.6152 -14.9805 C 10.5859 -15.0293 10.5859 -15.0781 10.6738 -15.1465 Z M 4.10156 2.41211 C 3.61328 1.91406 3.78906 1.61133 4.12109 1.30859 L 15.0781 -8.80859 L 16.3086 -7.57812 L 6.15234 3.34961 C 5.84961 3.68164 5.46875 3.7793 5.06836 3.37891 Z"/>
  </g>
  <text style="stroke:none;fill:black;font-family:-apple-system,&quot;SF Pro Display&quot;,&quot;SF Pro Text&quot;,Helvetica,sans-serif;font-weight:bold;" transform="matrix(1 0 0 1 1289 1953)">Exporting</text>
  <text style="stroke:none;fill:black;font-family:-apple-system,&quot;SF Pro Display&quot;,&quot;SF Pro Text&quot;,Helvetica,sans-serif;" transform="matrix(1 0 0 1 1289 1971)">Symbols should be outlined when exporting to ensure the</text>
  <text style="stroke:none;fill:black;font-family:-apple-system,&quot;SF Pro Display&quot;,&quot;SF Pro Text&quot;,Helvetica,sans-serif;" transform="matrix(1 0 0 1 1289 1989)">design is preserved when submitting to Xcode.</text>
  <text id="template-version" style="stroke:none;fill:black;font-family:-apple-system,&quot;SF Pro Display&quot;,&quot;SF Pro Text&quot;,Helvetica,sans-serif;text-anchor:end;" transform="matrix(1 0 0 1 3036 1933)">Template v.1.0</text>
  <text style="stroke:none;fill:black;font-family:-apple-system,&quot;SF Pro Display&quot;,&quot;SF Pro Text&quot;,Helvetica,sans-serif;text-anchor:end;" transform="matrix(1 0 0 1 3036 1951)">Generated from plus.app.fill</text>
  <text style="stroke:none;fill:black;font-family:-apple-system,&quot;SF Pro Display&quot;,&quot;SF Pro Text&quot;,Helvetica,sans-serif;text-anchor:end;" transform="matrix(1 0 0 1 3036 1969)">Typeset at 100 points</text>
  <text style="stroke:none;fill:black;font-family:-apple-system,&quot;SF Pro Display&quot;,&quot;SF Pro Text&quot;,Helvetica,sans-serif;" transform="matrix(1 0 0 1 263 726)">Small</text>
  <text style="stroke:none;fill:black;font-family:-apple-system,&quot;SF Pro Display&quot;,&quot;SF Pro Text&quot;,Helvetica,sans-serif;" transform="matrix(1 0 0 1 263 1156)">Medium</text>
  <text style="stroke:none;fill:black;font-family:-apple-system,&quot;SF Pro Display&quot;,&quot;SF Pro Text&quot;,Helvetica,sans-serif;" transform="matrix(1 0 0 1 263 1586)">Large</text>
 </g>
 <g id="Guides">
  <g id="H-reference" style="fill:#27AAE1;stroke:none;" transform="matrix(1 0 0 1 339 696)">
   <path d="M 54.9316 0 L 57.666 0 L 30.5664 -70.459 L 28.0762 -70.459 L 0.976562 0 L 3.66211 0 L 12.9395 -24.4629 L 45.7031 -24.4629 Z M 29.1992 -67.0898 L 29.4434 -67.0898 L 44.8242 -26.709 L 13.8184 -26.709 Z"/>
  </g>
  <line id="Baseline-S" style="fill:none;stroke:#27AAE1;opacity:1;stroke-width:0.577;" x1="263" x2="3036" y1="696" y2="696"/>
  <line id="Capline-S" style="fill:none;stroke:#27AAE1;opacity:1;stroke-width:0.577;" x1="263" x2="3036" y1="625.541" y2="625.541"/>
  <g id="H-reference" style="fill:#27AAE1;stroke:none;" transform="matrix(1 0 0 1 339 1126)">
   <path d="M 54.9316 0 L 57.666 0 L 30.5664 -70.459 L 28.0762 -70.459 L 0.976562 0 L 3.66211 0 L 12.9395 -24.4629 L 45.7031 -24.4629 Z M 29.1992 -67.0898 L 29.4434 -67.0898 L 44.8242 -26.709 L 13.8184 -26.709 Z"/>
  </g>
  <line id="Baseline-M" style="fill:none;stroke:#27AAE1;opacity:1;stroke-width:0.577;" x1="263" x2="3036" y1="1126" y2="1126"/>
  <line id="Capline-M" style="fill:none;stroke:#27AAE1;opacity:1;stroke-width:0.577;" x1="263" x2="3036" y1="1055.54" y2="1055.54"/>
  <g id="H-reference" style="fill:#27AAE1;stroke:none;" transform="matrix(1 0 0 1 339 1556)">
   <path d="M 54.9316 0 L 57.666 0 L 30.5664 -70.459 L 28.0762 -70.459 L 0.976562 0 L 3.66211 0 L 12.9395 -24.4629 L 45.7031 -24.4629 Z M 29.1992 -67.0898 L 29.4434 -67.0898 L 44.8242 -26.709 L 13.8184 -26.709 Z"/>
  </g>
  <line id="Baseline-L" style="fill:none;stroke:#27AAE1;opacity:1;stroke-width:0.577;" x1="263" x2="3036" y1="1556" y2="1556"/>
  <line id="Capline-L" style="fill:none;stroke:#27AAE1;opacity:1;stroke-width:0.577;" x1="263" x2="3036" y1="1485.54" y2="1485.54"/>
  <rect height="119.336" id="left-margin" style="fill:#00AEEF;stroke:none;opacity:0.4;" width="12.4512" x="1392.96" y="1030.79"/>
  <rect height="119.336" id="right-margin" style="fill:#00AEEF;stroke:none;opacity:0.4;" width="12.4512" x="1494.28" y="1030.79"/>
 </g>
 <g id="Symbols">
  <g id="Black-L" transform="matrix(1 0 0 1 2856.4 1556)">
   <path d="M 129.248 -87.4023 C 122.461 -94.1406 113.574 -96.1914 99.8535 -96.1914 L 54.1504 -96.1914 C 40.4297 -96.1914 31.4941 -94.1406 24.7559 -87.4023 C 18.0176 -80.6641 16.0645 -71.9238 16.0645 -58.1055 L 16.0645 -12.3535 C 16.0645 1.46484 18.0176 10.2539 24.7559 16.9434 C 31.543 23.6816 40.4297 25.7324 54.1504 25.7324 L 99.8535 25.7324 C 113.574 25.7324 122.51 23.6816 129.248 16.9434 C 135.986 10.2051 137.939 1.46484 137.939 -12.3535 L 137.939 -58.1055 C 137.939 -71.9238 135.986 -80.7129 129.248 -87.4023 Z M 77.002 -4.15039 C 71.9727 -4.15039 68.3594 -7.76367 68.3594 -12.7441 L 68.3594 -26.5137 L 53.6133 -26.5137 C 48.6816 -26.5137 44.9707 -30.127 44.9707 -35.1074 C 44.9707 -40.1367 48.6328 -43.75 53.6133 -43.75 L 68.3594 -43.75 L 68.3594 -58.0078 C 68.3594 -62.9395 71.9727 -66.6016 77.002 -66.6016 C 81.9824 -66.6016 85.6445 -62.9883 85.6445 -58.0078 L 85.6445 -43.75 L 100.439 -43.75 C 105.469 -43.75 109.082 -40.1367 109.082 -35.1074 C 109.082 -30.127 105.469 -26.5137 100.439 -26.5137 L 85.6445 -26.5137 L 85.6445 -12.7441 C 85.6445 -7.71484 81.9824 -4.15039 77.002 -4.15039 Z"/>
  </g>
  <g id="Heavy-L" transform="matrix(1 0 0 1 2560.69 1556)">
   <path d="M 127.637 -86.7676 C 120.996 -93.3594 112.207 -95.166 99.1211 -95.166 L 52.832 -95.166 C 39.7949 -95.166 30.957 -93.3594 24.4141 -86.7676 C 17.8223 -80.1758 16.0645 -71.5332 16.0645 -58.3984 L 16.0645 -12.1582 C 16.0645 1.07422 17.8223 9.76562 24.4141 16.3086 C 31.0059 22.8516 39.7949 24.707 52.9297 24.707 L 99.1211 24.707 C 112.207 24.707 121.045 22.8516 127.637 16.3086 C 134.18 9.7168 135.938 1.07422 135.938 -12.1582 L 135.938 -58.3496 C 135.938 -71.5332 134.18 -80.2246 127.637 -86.7676 Z M 75.9766 -4.05273 C 71.4355 -4.05273 68.3105 -7.37305 68.3105 -11.8652 L 68.3105 -27.4414 L 51.7578 -27.4414 C 47.2656 -27.4414 43.8965 -30.6152 43.8965 -35.1074 C 43.8965 -39.6973 47.168 -42.8711 51.7578 -42.8711 L 68.3105 -42.8711 L 68.3105 -59.0332 C 68.3105 -63.5254 71.4355 -66.7969 75.9766 -66.7969 C 80.5176 -66.7969 83.7402 -63.5742 83.7402 -59.0332 L 83.7402 -42.8711 L 100.244 -42.8711 C 104.883 -42.8711 108.105 -39.6973 108.105 -35.1074 C 108.105 -30.6152 104.834 -27.4414 100.244 -27.4414 L 83.7402 -27.4414 L 83.7402 -11.8652 C 83.7402 -7.32422 80.5176 -4.05273 75.9766 -4.05273 Z"/>
  </g>
  <g id="Bold-L" transform="matrix(1 0 0 1 2265.1 1556)">
   <path d="M 125.781 -86.084 C 119.336 -92.4805 110.693 -94.043 98.2422 -94.043 L 51.3672 -94.043 C 39.1113 -94.043 30.3711 -92.4316 23.9746 -86.0352 C 17.627 -79.6387 16.0645 -71.0938 16.0645 -58.7402 L 16.0645 -11.9141 C 16.0645 0.634766 17.5781 9.22852 23.9746 15.5762 C 30.4199 21.9727 39.0625 23.584 51.5137 23.584 L 98.2422 23.584 C 110.693 23.584 119.385 21.9727 125.781 15.5762 C 132.178 9.17969 133.691 0.634766 133.691 -11.9141 L 133.691 -58.5938 C 133.691 -71.0938 132.178 -79.7363 125.781 -86.084 Z M 74.8535 -4.00391 C 70.8008 -4.00391 68.2129 -6.88477 68.2129 -10.8887 L 68.2129 -28.5156 L 49.707 -28.5156 C 45.6543 -28.5156 42.7246 -31.1523 42.7246 -35.1074 C 42.7246 -39.1602 45.6055 -41.8457 49.707 -41.8457 L 68.2129 -41.8457 L 68.2129 -60.1562 C 68.2129 -64.1602 70.8008 -67.0898 74.8535 -67.0898 C 78.8086 -67.0898 81.543 -64.2578 81.543 -60.1562 L 81.543 -41.8457 L 100.098 -41.8457 C 104.248 -41.8457 107.031 -39.1602 107.031 -35.1074 C 107.031 -31.1523 104.15 -28.5156 100.098 -28.5156 L 81.543 -28.5156 L 81.543 -10.8887 C 81.543 -6.83594 78.8086 -4.00391 74.8535 -4.00391 Z"/>
  </g>
  <g id="Semibold-L" transform="matrix(1 0 0 1 1969.17 1556)">
   <path d="M 124.512 -85.5957 C 118.213 -91.8457 109.619 -93.3105 97.6562 -93.3105 L 50.3418 -93.3105 C 38.623 -93.3105 29.9805 -91.7969 23.7305 -85.5469 C 17.4316 -79.2969 16.0645 -70.8008 16.0645 -58.9844 L 16.0645 -11.7188 C 16.0645 0.341797 17.4316 8.83789 23.6816 15.0879 C 30.0293 21.3379 38.5742 22.8027 50.5859 22.8027 L 97.6562 22.8027 C 109.619 22.8027 118.262 21.3379 124.512 15.0879 C 130.762 8.78906 132.129 0.341797 132.129 -11.7188 L 132.129 -58.7891 C 132.129 -70.8008 130.762 -79.3457 124.512 -85.5957 Z M 74.0234 -3.95508 C 70.4102 -3.95508 68.1152 -6.5918 68.1152 -10.2539 L 68.1152 -29.248 L 48.291 -29.248 C 44.5801 -29.248 41.8945 -31.543 41.8945 -35.1074 C 41.8945 -38.8184 44.4824 -41.1621 48.291 -41.1621 L 68.1152 -41.1621 L 68.1152 -60.9375 C 68.1152 -64.5996 70.4102 -67.2363 74.0234 -67.2363 C 77.6855 -67.2363 80.0781 -64.6973 80.0781 -60.9375 L 80.0781 -41.1621 L 99.9512 -41.1621 C 103.809 -41.1621 106.299 -38.8184 106.299 -35.1074 C 106.299 -31.543 103.662 -29.248 99.9512 -29.248 L 80.0781 -29.248 L 80.0781 -10.2539 C 80.0781 -6.49414 77.6855 -3.95508 74.0234 -3.95508 Z"/>
  </g>
  <g id="Medium-L" transform="matrix(1 0 0 1 1673.04 1556)">
   <path d="M 123.535 -85.2051 C 117.334 -91.3574 108.838 -92.7246 97.168 -92.7246 L 49.6094 -92.7246 C 38.2812 -92.7246 29.6875 -91.3574 23.5352 -85.1562 C 17.334 -79.0039 16.0645 -70.5566 16.0645 -59.1797 L 16.0645 -11.5723 C 16.0645 0.0976562 17.334 8.54492 23.4863 14.6973 C 29.6875 20.8496 38.2324 22.2168 49.8535 22.2168 L 97.168 22.2168 C 108.838 22.2168 117.383 20.8496 123.535 14.6973 C 129.736 8.54492 130.957 0.0976562 130.957 -11.5723 L 130.957 -58.9355 C 130.957 -70.6055 129.736 -79.0527 123.535 -85.2051 Z M 73.4375 -3.90625 C 70.0684 -3.90625 68.0664 -6.34766 68.0664 -9.76562 L 68.0664 -29.7852 L 47.2168 -29.7852 C 43.75 -29.7852 41.2598 -31.8359 41.2598 -35.1074 C 41.2598 -38.5254 43.6523 -40.625 47.2168 -40.625 L 68.0664 -40.625 L 68.0664 -61.5234 C 68.0664 -64.9414 70.0684 -67.3828 73.4375 -67.3828 C 76.8066 -67.3828 78.9551 -65.0391 78.9551 -61.5234 L 78.9551 -40.625 L 99.8535 -40.625 C 103.467 -40.625 105.762 -38.5254 105.762 -35.1074 C 105.762 -31.8359 103.32 -29.7852 99.8535 -29.7852 L 78.9551 -29.7852 L 78.9551 -9.76562 C 78.9551 -6.25 76.8066 -3.90625 73.4375 -3.90625 Z"/>
  </g>
  <g id="Regular-L" transform="matrix(1 0 0 1 1377.09 1556)">
   <path d="M 122.314 -84.7168 C 116.211 -90.7715 107.764 -91.9434 96.582 -91.9434 L 48.584 -91.9434 C 37.793 -91.9434 29.2969 -90.7227 23.2422 -84.668 C 17.1875 -78.6621 16.0645 -70.2637 16.0645 -59.4238 L 16.0645 -11.4258 C 16.0645 -0.195312 17.1387 8.20312 23.1934 14.209 C 29.2969 20.2637 37.7441 21.4355 48.9258 21.4355 L 96.582 21.4355 C 107.764 21.4355 116.26 20.2637 122.314 14.209 C 128.32 8.1543 129.443 -0.195312 129.443 -11.4258 L 129.443 -59.082 C 129.443 -70.3125 128.32 -78.7109 122.314 -84.7168 Z M 72.6562 -3.85742 C 69.6777 -3.85742 68.0176 -6.05469 68.0176 -9.08203 L 68.0176 -30.5176 L 45.8008 -30.5176 C 42.6758 -30.5176 40.4785 -32.1777 40.4785 -35.1074 C 40.4785 -38.1836 42.5781 -39.9414 45.8008 -39.9414 L 68.0176 -39.9414 L 68.0176 -62.3047 C 68.0176 -65.3809 69.6777 -67.5781 72.6562 -67.5781 C 75.6836 -67.5781 77.4902 -65.4785 77.4902 -62.3047 L 77.4902 -39.9414 L 99.7559 -39.9414 C 102.979 -39.9414 105.029 -38.1836 105.029 -35.1074 C 105.029 -32.1777 102.881 -30.5176 99.7559 -30.5176 L 77.4902 -30.5176 L 77.4902 -9.08203 C 77.4902 -5.9082 75.6836 -3.85742 72.6562 -3.85742 Z"/>
  </g>
  <g id="Light-L" transform="matrix(1 0 0 1 1081.26 1556)">
   <path d="M 120.85 -84.082 C 115.283 -89.5996 107.617 -91.0156 95.8984 -91.0156 L 47.3633 -91.0156 C 36.2305 -91.0156 28.5156 -89.5508 22.9492 -84.0332 C 17.4316 -78.5156 16.0645 -70.8984 16.0645 -59.7168 L 16.0645 -11.1816 C 16.0645 0.585938 17.3828 8.20312 22.9004 13.6719 C 28.5156 19.2383 36.1328 20.6055 47.8516 20.6055 L 95.8984 20.6055 C 107.617 20.6055 115.332 19.2383 120.85 13.6719 C 126.367 8.1543 127.686 0.585938 127.686 -11.1816 L 127.686 -59.2285 C 127.686 -70.9961 126.367 -78.6133 120.85 -84.082 Z M 71.7773 -3.80859 C 69.5801 -3.80859 68.2617 -5.46875 68.2617 -7.71484 L 68.2617 -31.5918 L 43.8965 -31.5918 C 41.6504 -31.5918 39.8926 -32.959 39.8926 -35.1074 C 39.8926 -37.4023 41.5039 -38.8184 43.8965 -38.8184 L 68.2617 -38.8184 L 68.2617 -63.2324 C 68.2617 -65.5273 69.5801 -67.2363 71.7773 -67.2363 C 74.1211 -67.2363 75.4883 -65.625 75.4883 -63.2324 L 75.4883 -38.8184 L 99.9023 -38.8184 C 102.295 -38.8184 103.857 -37.4023 103.857 -35.1074 C 103.857 -32.959 102.148 -31.5918 99.9023 -31.5918 L 75.4883 -31.5918 L 75.4883 -7.71484 C 75.4883 -5.41992 74.1211 -3.80859 71.7773 -3.80859 Z"/>
  </g>
  <g id="Thin-L" transform="matrix(1 0 0 1 785.695 1556)">
   <path d="M 118.945 -83.252 C 114.014 -88.0859 107.471 -89.7949 94.9707 -89.7949 L 45.752 -89.7949 C 34.1309 -89.7949 27.4414 -88.0371 22.6074 -83.2031 C 17.7734 -78.3203 16.0645 -71.7773 16.0645 -60.1074 L 16.0645 -10.8887 C 16.0645 1.66016 17.6758 8.25195 22.5098 12.9883 C 27.4414 17.8711 33.9844 19.5312 46.4844 19.5312 L 94.9707 19.5312 C 107.471 19.5312 114.111 17.8711 118.945 12.9883 C 123.779 8.1543 125.391 1.66016 125.391 -10.8887 L 125.391 -59.375 C 125.391 -71.9238 123.779 -78.4668 118.945 -83.252 Z M 70.6543 -3.75977 C 69.4336 -3.75977 68.5547 -4.73633 68.5547 -5.9082 L 68.5547 -33.0566 L 41.4062 -33.0566 C 40.2344 -33.0566 39.1602 -33.9355 39.1602 -35.1074 C 39.1602 -36.4258 40.1367 -37.3535 41.4062 -37.3535 L 68.5547 -37.3535 L 68.5547 -64.5508 C 68.5547 -65.7715 69.4336 -66.748 70.6543 -66.748 C 72.0215 -66.748 72.9004 -65.7715 72.9004 -64.5508 L 72.9004 -37.3535 L 100.049 -37.3535 C 101.318 -37.3535 102.295 -36.4258 102.295 -35.1074 C 102.295 -33.9355 101.221 -33.0566 100.049 -33.0566 L 72.9004 -33.0566 L 72.9004 -5.9082 C 72.9004 -4.73633 72.0215 -3.75977 70.6543 -3.75977 Z"/>
  </g>
  <g id="Ultralight-L" transform="matrix(1 0 0 1 489.57 1556)">
   <path d="M 117.969 -82.8125 C 113.379 -87.3047 107.373 -89.1602 94.4824 -89.1602 L 44.9219 -89.1602 C 33.1055 -89.1602 26.9043 -87.2559 22.4121 -82.7637 C 17.9199 -78.2715 16.0645 -72.2168 16.0645 -60.3027 L 16.0645 -10.7422 C 16.0645 2.24609 17.8223 8.25195 22.3145 12.6465 C 26.9043 17.1387 32.9102 18.9941 45.8008 18.9941 L 94.4824 18.9941 C 107.373 18.9941 113.477 17.1387 117.969 12.6465 C 122.461 8.1543 124.219 2.24609 124.219 -10.7422 L 124.219 -59.4238 C 124.219 -72.4121 122.461 -78.418 117.969 -82.8125 Z M 70.0684 -3.71094 C 69.3359 -3.71094 68.75 -4.3457 68.75 -4.98047 L 68.75 -33.7891 L 40.1367 -33.7891 C 39.502 -33.7891 38.8184 -34.4727 38.8184 -35.1074 C 38.8184 -35.8887 39.4531 -36.5723 40.1367 -36.5723 L 68.75 -36.5723 L 68.75 -65.1855 C 68.75 -65.8691 69.3359 -66.5039 70.0684 -66.5039 C 70.9473 -66.5039 71.5332 -65.8691 71.5332 -65.1855 L 71.5332 -36.5723 L 100.146 -36.5723 C 100.83 -36.5723 101.465 -35.8887 101.465 -35.1074 C 101.465 -34.4727 100.781 -33.7891 100.146 -33.7891 L 71.5332 -33.7891 L 71.5332 -4.98047 C 71.5332 -4.39453 70.9473 -3.71094 70.0684 -3.71094 Z"/>
  </g>
  <g id="Black-M" transform="matrix(1 0 0 1 2872.83 1126)">
   <path d="M 101.611 -76.1719 C 96.3867 -81.3477 89.7949 -83.3008 78.0762 -83.3008 L 43.0664 -83.3008 C 31.3477 -83.3008 24.707 -81.3477 19.5312 -76.1719 C 14.3555 -70.9961 12.4512 -64.5508 12.4512 -52.6855 L 12.4512 -17.7246 C 12.4512 -5.81055 14.3555 0.683594 19.5312 5.81055 C 24.7559 10.9863 31.3477 12.9395 43.0664 12.9395 L 78.0762 12.9395 C 89.7949 12.9395 96.4844 10.9863 101.611 5.81055 C 106.787 0.634766 108.691 -5.81055 108.691 -17.7246 L 108.691 -52.6855 C 108.691 -64.5508 106.787 -71.0938 101.611 -76.1719 Z M 60.5957 -11.2305 C 56.4453 -11.2305 53.2227 -14.209 53.2227 -18.2129 L 53.2227 -27.7832 L 43.0664 -27.7832 C 39.0625 -27.7832 35.9863 -31.0059 35.9863 -35.1562 C 35.9863 -39.2578 39.0625 -42.4805 43.0664 -42.4805 L 53.2227 -42.4805 L 53.2227 -52.002 C 53.2227 -56.0059 56.4453 -59.0332 60.5957 -59.0332 C 64.6973 -59.0332 67.9199 -56.0059 67.9199 -52.002 L 67.9199 -42.4805 L 78.125 -42.4805 C 82.1777 -42.4805 85.1562 -39.2578 85.1562 -35.1562 C 85.1562 -31.0059 82.1777 -27.7832 78.125 -27.7832 L 67.9199 -27.7832 L 67.9199 -18.2129 C 67.9199 -14.209 64.6973 -11.2305 60.5957 -11.2305 Z"/>
  </g>
  <g id="Heavy-M" transform="matrix(1 0 0 1 2577 1126)">
   <path d="M 100.195 -75.6348 C 95.0195 -80.7617 88.3301 -82.4707 77.3926 -82.4707 L 41.9434 -82.4707 C 31.0547 -82.4707 24.3164 -80.7617 19.1895 -75.6348 C 14.0625 -70.5078 12.4512 -63.9648 12.4512 -52.9297 L 12.4512 -17.5293 C 12.4512 -6.49414 14.0625 0.146484 19.1895 5.22461 C 24.3652 10.3516 31.0547 12.0117 41.9922 12.0117 L 77.3926 12.0117 C 88.3301 12.0117 95.0684 10.3516 100.195 5.22461 C 105.322 0.0976562 106.934 -6.49414 106.934 -17.5293 L 106.934 -52.9297 C 106.934 -63.9648 105.322 -70.6055 100.195 -75.6348 Z M 59.668 -11.1328 C 55.8594 -11.1328 53.0762 -13.916 53.0762 -17.627 L 53.0762 -28.5156 L 41.5039 -28.5156 C 37.793 -28.5156 34.9609 -31.3477 34.9609 -35.1562 C 34.9609 -38.9648 37.7441 -41.7969 41.5039 -41.7969 L 53.0762 -41.7969 L 53.0762 -52.8809 C 53.0762 -56.5918 55.8594 -59.375 59.668 -59.375 C 63.4766 -59.375 66.3086 -56.6406 66.3086 -52.8809 L 66.3086 -41.7969 L 77.8809 -41.7969 C 81.6895 -41.7969 84.4238 -38.9648 84.4238 -35.1562 C 84.4238 -31.3477 81.6895 -28.5156 77.8809 -28.5156 L 66.3086 -28.5156 L 66.3086 -17.627 C 66.3086 -13.8672 63.4766 -11.1328 59.668 -11.1328 Z"/>
  </g>
  <g id="Bold-M" transform="matrix(1 0 0 1 2281.26 1126)">
   <path d="M 98.6328 -75.0488 C 93.5059 -80.127 86.7188 -81.4941 76.6602 -81.4941 L 40.7227 -81.4941 C 30.7617 -81.4941 23.9258 -80.127 18.8477 -75.0488 C 13.7695 -69.9707 12.4512 -63.2812 12.4512 -53.2227 L 12.4512 -17.2852 C 12.4512 -7.17773 13.7695 -0.439453 18.8477 4.58984 C 23.9746 9.66797 30.7617 11.0352 40.7715 11.0352 L 76.6602 11.0352 C 86.7188 11.0352 93.5547 9.66797 98.6328 4.58984 C 103.711 -0.488281 104.98 -7.17773 104.98 -17.2852 L 104.98 -53.1738 C 104.98 -63.2812 103.711 -70.0195 98.6328 -75.0488 Z M 58.6914 -11.084 C 55.2734 -11.084 52.8809 -13.5742 52.8809 -16.9922 L 52.8809 -29.3457 L 39.7949 -29.3457 C 36.377 -29.3457 33.8379 -31.7383 33.8379 -35.1562 C 33.8379 -38.623 36.3281 -40.9668 39.7949 -40.9668 L 52.8809 -40.9668 L 52.8809 -53.8574 C 52.8809 -57.2754 55.2734 -59.7656 58.6914 -59.7656 C 62.1094 -59.7656 64.5508 -57.3242 64.5508 -53.8574 L 64.5508 -40.9668 L 77.6855 -40.9668 C 81.2012 -40.9668 83.6426 -38.623 83.6426 -35.1562 C 83.6426 -31.7383 81.1523 -29.3457 77.6855 -29.3457 L 64.5508 -29.3457 L 64.5508 -16.9922 C 64.5508 -13.5254 62.1094 -11.084 58.6914 -11.084 Z"/>
  </g>
  <g id="Semibold-M" transform="matrix(1 0 0 1 1985.21 1126)">
   <path d="M 97.5098 -74.6582 C 92.4316 -79.6875 85.5957 -80.8594 76.1719 -80.8594 L 39.8438 -80.8594 C 30.5664 -80.8594 23.6328 -79.6875 18.6035 -74.6582 C 13.5742 -69.6289 12.4512 -62.793 12.4512 -53.4668 L 12.4512 -17.1387 C 12.4512 -7.66602 13.5254 -0.878906 18.6035 4.15039 C 23.6816 9.17969 30.5176 10.3516 39.9414 10.3516 L 76.1719 10.3516 C 85.5957 10.3516 92.4805 9.17969 97.5098 4.15039 C 102.539 -0.878906 103.662 -7.66602 103.662 -17.1387 L 103.662 -53.3691 C 103.662 -62.8418 102.539 -69.6289 97.5098 -74.6582 Z M 58.0078 -11.0352 C 54.834 -11.0352 52.7832 -13.3301 52.7832 -16.5527 L 52.7832 -29.9316 L 38.623 -29.9316 C 35.4004 -29.9316 33.0566 -31.9824 33.0566 -35.1562 C 33.0566 -38.3789 35.3027 -40.4297 38.623 -40.4297 L 52.7832 -40.4297 L 52.7832 -54.4922 C 52.7832 -57.7148 54.834 -60.0098 58.0078 -60.0098 C 61.1816 -60.0098 63.3301 -57.7637 63.3301 -54.4922 L 63.3301 -40.4297 L 77.4902 -40.4297 C 80.8594 -40.4297 83.0566 -38.3789 83.0566 -35.1562 C 83.0566 -31.9824 80.7617 -29.9316 77.4902 -29.9316 L 63.3301 -29.9316 L 63.3301 -16.5527 C 63.3301 -13.2812 61.1816 -11.0352 58.0078 -11.0352 Z"/>
  </g>
  <g id="Medium-M" transform="matrix(1 0 0 1 1689.01 1126)">
   <path d="M 96.6797 -74.3652 C 91.6504 -79.3457 84.7168 -80.3711 75.7812 -80.3711 L 39.209 -80.3711 C 30.3711 -80.3711 23.4375 -79.3457 18.4082 -74.3164 C 13.3789 -69.3359 12.4512 -62.4512 12.4512 -53.6133 L 12.4512 -17.041 C 12.4512 -8.05664 13.3789 -1.17188 18.4082 3.80859 C 23.4375 8.83789 30.3711 9.81445 39.3066 9.81445 L 75.7812 9.81445 C 84.7168 9.81445 91.6504 8.83789 96.6797 3.80859 C 101.709 -1.2207 102.637 -8.05664 102.637 -17.041 L 102.637 -53.4668 C 102.637 -62.4512 101.709 -69.3359 96.6797 -74.3652 Z M 57.4707 -10.9863 C 54.4922 -10.9863 52.6855 -13.1348 52.6855 -16.2109 L 52.6855 -30.3711 L 37.7441 -30.3711 C 34.668 -30.3711 32.4707 -32.1777 32.4707 -35.1562 C 32.4707 -38.1836 34.5703 -40.0391 37.7441 -40.0391 L 52.6855 -40.0391 L 52.6855 -54.9805 C 52.6855 -58.0566 54.4922 -60.2539 57.4707 -60.2539 C 60.4492 -60.2539 62.4023 -58.1543 62.4023 -54.9805 L 62.4023 -40.0391 L 77.3926 -40.0391 C 80.5664 -40.0391 82.6172 -38.1836 82.6172 -35.1562 C 82.6172 -32.1777 80.4688 -30.3711 77.3926 -30.3711 L 62.4023 -30.3711 L 62.4023 -16.2109 C 62.4023 -13.0859 60.4492 -10.9863 57.4707 -10.9863 Z"/>
  </g>
  <g id="Regular-M" transform="matrix(1 0 0 1 1392.96 1126)">
   <path d="M 95.6055 -73.9258 C 90.625 -78.9062 83.5938 -79.6875 75.2441 -79.6875 L 38.3789 -79.6875 C 30.1758 -79.6875 23.1445 -78.9062 18.1641 -73.9258 C 13.1836 -68.9453 12.4512 -61.9629 12.4512 -53.8086 L 12.4512 -16.8945 C 12.4512 -8.54492 13.1836 -1.61133 18.1641 3.36914 C 23.1445 8.34961 30.1758 9.13086 38.4766 9.13086 L 75.2441 9.13086 C 83.5938 9.13086 90.625 8.34961 95.6055 3.36914 C 100.586 -1.61133 101.318 -8.54492 101.318 -16.8945 L 101.318 -53.6621 C 101.318 -62.0117 100.586 -68.9941 95.6055 -73.9258 Z M 56.8359 -10.9375 C 54.0527 -10.9375 52.5879 -12.9395 52.5879 -15.7715 L 52.5879 -30.957 L 36.5723 -30.957 C 33.6914 -30.957 31.6895 -32.4707 31.6895 -35.1562 C 31.6895 -37.9395 33.5938 -39.502 36.5723 -39.502 L 52.5879 -39.502 L 52.5879 -55.6641 C 52.5879 -58.4961 54.0527 -60.498 56.8359 -60.498 C 59.5215 -60.498 61.1816 -58.5938 61.1816 -55.6641 L 61.1816 -39.502 L 77.2461 -39.502 C 80.2246 -39.502 82.0801 -37.9395 82.0801 -35.1562 C 82.0801 -32.4707 80.127 -30.957 77.2461 -30.957 L 61.1816 -30.957 L 61.1816 -15.7715 C 61.1816 -12.8418 59.5215 -10.9375 56.8359 -10.9375 Z"/>
  </g>
  <g id="Light-M" transform="matrix(1 0 0 1 1097.03 1126)">
   <path d="M 94.2871 -73.3887 C 89.7461 -77.8809 83.4961 -78.8574 74.6094 -78.8574 L 37.2559 -78.8574 C 28.7598 -78.8574 22.4609 -77.8809 17.9199 -73.3398 C 13.4277 -68.8477 12.4512 -62.5977 12.4512 -54.0527 L 12.4512 -16.6992 C 12.4512 -7.8125 13.3789 -1.5625 17.8711 2.92969 C 22.4609 7.42188 28.7109 8.39844 37.5488 8.39844 L 74.6094 8.39844 C 83.4961 8.39844 89.7949 7.42188 94.2871 2.92969 C 98.8281 -1.61133 99.7559 -7.8125 99.7559 -16.6992 L 99.7559 -53.7598 C 99.7559 -62.6465 98.8281 -68.8965 94.2871 -73.3887 Z M 56.0547 -10.8887 C 53.9551 -10.8887 52.7832 -12.4023 52.7832 -14.502 L 52.7832 -31.9336 L 34.8633 -31.9336 C 32.7148 -31.9336 31.2012 -33.1055 31.2012 -35.1562 C 31.2012 -37.2559 32.666 -38.5254 34.8633 -38.5254 L 52.7832 -38.5254 L 52.7832 -56.543 C 52.7832 -58.6426 53.9551 -60.1562 56.0547 -60.1562 C 58.1543 -60.1562 59.4238 -58.7402 59.4238 -56.543 L 59.4238 -38.5254 L 77.3438 -38.5254 C 79.5898 -38.5254 81.0059 -37.2559 81.0059 -35.1562 C 81.0059 -33.1055 79.4922 -31.9336 77.3438 -31.9336 L 59.4238 -31.9336 L 59.4238 -14.502 C 59.4238 -12.3535 58.1543 -10.8887 56.0547 -10.8887 Z"/>
  </g>
  <g id="Thin-M" transform="matrix(1 0 0 1 801.344 1126)">
   <path d="M 92.5781 -72.6562 C 88.623 -76.5137 83.3008 -77.7832 73.7793 -77.7832 L 35.8398 -77.7832 C 26.9043 -77.7832 21.4844 -76.4648 17.5781 -72.5586 C 13.6719 -68.6523 12.4512 -63.3789 12.4512 -54.3945 L 12.4512 -16.4551 C 12.4512 -6.83594 13.623 -1.5625 17.5293 2.29492 C 21.4844 6.20117 26.8066 7.4707 36.3281 7.4707 L 73.7793 7.4707 C 83.3008 7.4707 88.6719 6.20117 92.5781 2.29492 C 96.4844 -1.61133 97.7051 -6.83594 97.7051 -16.4551 L 97.7051 -53.9062 C 97.7051 -63.4766 96.4844 -68.7988 92.5781 -72.6562 Z M 54.9805 -10.8398 C 53.8574 -10.8398 53.0762 -11.7676 53.0762 -12.8906 L 53.0762 -33.2031 L 32.6172 -33.2031 C 31.4941 -33.2031 30.5176 -34.0332 30.5176 -35.1562 C 30.5176 -36.377 31.3965 -37.207 32.6172 -37.207 L 53.0762 -37.207 L 53.0762 -57.666 C 53.0762 -58.8379 53.8574 -59.7656 54.9805 -59.7656 C 56.25 -59.7656 57.0801 -58.8867 57.0801 -57.666 L 57.0801 -37.207 L 77.4902 -37.207 C 78.7109 -37.207 79.5898 -36.377 79.5898 -35.1562 C 79.5898 -34.0332 78.6621 -33.2031 77.4902 -33.2031 L 57.0801 -33.2031 L 57.0801 -12.8906 C 57.0801 -11.7188 56.25 -10.8398 54.9805 -10.8398 Z"/>
  </g>
  <g id="Ultralight-M" transform="matrix(1 0 0 1 505.17 1126)">
   <path d="M 91.6992 -72.2656 C 88.0859 -75.8301 83.252 -77.1973 73.3887 -77.1973 L 35.0586 -77.1973 C 25.9766 -77.1973 20.9961 -75.7812 17.4316 -72.168 C 13.8184 -68.6035 12.4512 -63.7695 12.4512 -54.5898 L 12.4512 -16.3086 C 12.4512 -6.34766 13.7695 -1.5625 17.3828 2.00195 C 20.9961 5.56641 25.8301 6.93359 35.6934 6.93359 L 73.3887 6.93359 C 83.252 6.93359 88.1348 5.56641 91.6992 2.00195 C 95.3125 -1.61133 96.6309 -6.34766 96.6309 -16.3086 L 96.6309 -53.9551 C 96.6309 -63.916 95.3125 -68.7012 91.6992 -72.2656 Z M 54.4922 -10.8398 C 53.7598 -10.8398 53.2227 -11.4258 53.2227 -12.0605 L 53.2227 -33.8867 L 31.4941 -33.8867 C 30.8594 -33.8867 30.1758 -34.4727 30.1758 -35.1562 C 30.1758 -35.8887 30.7617 -36.5234 31.4941 -36.5234 L 53.2227 -36.5234 L 53.2227 -58.252 C 53.2227 -58.9355 53.7598 -59.5703 54.4922 -59.5703 C 55.3223 -59.5703 55.8594 -58.9355 55.8594 -58.252 L 55.8594 -36.5234 L 77.5879 -36.5234 C 78.2715 -36.5234 78.9062 -35.8887 78.9062 -35.1562 C 78.9062 -34.4727 78.2227 -33.8867 77.5879 -33.8867 L 55.8594 -33.8867 L 55.8594 -12.0605 C 55.8594 -11.4258 55.3223 -10.8398 54.4922 -10.8398 Z"/>
  </g>
  <g id="Black-S" transform="matrix(1 0 0 1 2885.99 696)">
   <path d="M 79.541 -67.2852 C 75.4395 -71.3379 70.2637 -72.8516 61.1328 -72.8516 L 33.6914 -72.8516 C 24.5605 -72.8516 19.3359 -71.3379 15.2832 -67.2852 C 11.2305 -63.2324 9.76562 -58.1543 9.76562 -48.9258 L 9.76562 -21.4844 C 9.76562 -12.2559 11.2305 -7.12891 15.2832 -3.125 C 19.3848 0.927734 24.5605 2.44141 33.6914 2.44141 L 61.1328 2.44141 C 70.2637 2.44141 75.4883 0.927734 79.541 -3.125 C 83.5938 -7.17773 85.0586 -12.2559 85.0586 -21.4844 L 85.0586 -48.9258 C 85.0586 -58.1543 83.5938 -63.2812 79.541 -67.2852 Z M 47.4121 -16.4062 C 44.1895 -16.4062 41.6992 -18.75 41.6992 -21.875 L 41.6992 -29.4434 L 33.6426 -29.4434 C 30.5176 -29.4434 28.125 -31.9336 28.125 -35.1562 C 28.125 -38.3789 30.5176 -40.8691 33.6426 -40.8691 L 41.6992 -40.8691 L 41.6992 -48.4375 C 41.6992 -51.5625 44.1895 -53.9062 47.4121 -53.9062 C 50.6348 -53.9062 53.125 -51.5625 53.125 -48.4375 L 53.125 -40.8691 L 61.1816 -40.8691 C 64.3555 -40.8691 66.6992 -38.3789 66.6992 -35.1562 C 66.6992 -31.9336 64.3555 -29.4434 61.1816 -29.4434 L 53.125 -29.4434 L 53.125 -21.875 C 53.125 -18.75 50.6348 -16.4062 47.4121 -16.4062 Z"/>
  </g>
  <g id="Heavy-S" transform="matrix(1 0 0 1 2589.86 696)">
   <path d="M 78.6133 -66.9434 C 74.4629 -70.9961 69.1406 -72.3145 60.6934 -72.3145 L 32.959 -72.3145 C 24.5117 -72.3145 19.1406 -70.9961 15.0879 -66.9434 C 10.9863 -62.8906 9.76562 -57.6172 9.76562 -49.1211 L 9.76562 -21.3379 C 9.76562 -12.8418 10.9863 -7.51953 15.0879 -3.51562 C 19.1895 0.537109 24.5117 1.85547 32.959 1.85547 L 60.6934 1.85547 C 69.1406 1.85547 74.5117 0.537109 78.6133 -3.51562 C 82.666 -7.56836 83.8867 -12.8418 83.8867 -21.3379 L 83.8867 -49.0723 C 83.8867 -57.6172 82.666 -62.8906 78.6133 -66.9434 Z M 46.8262 -16.3574 C 43.75 -16.3574 41.5527 -18.5547 41.5527 -21.582 L 41.5527 -29.8828 L 32.666 -29.8828 C 29.6387 -29.8828 27.3926 -32.1289 27.3926 -35.1562 C 27.3926 -38.2324 29.6387 -40.4297 32.666 -40.4297 L 41.5527 -40.4297 L 41.5527 -49.0234 C 41.5527 -52.002 43.75 -54.1992 46.8262 -54.1992 C 49.8535 -54.1992 52.0996 -52.002 52.0996 -49.0234 L 52.0996 -40.4297 L 61.0352 -40.4297 C 64.0625 -40.4297 66.2598 -38.2324 66.2598 -35.1562 C 66.2598 -32.1289 64.0625 -29.8828 61.0352 -29.8828 L 52.0996 -29.8828 L 52.0996 -21.582 C 52.0996 -18.5547 49.8535 -16.3574 46.8262 -16.3574 Z"/>
  </g>
  <g id="Bold-S" transform="matrix(1 0 0 1 2293.79 696)">
   <path d="M 77.5391 -66.5527 C 73.4375 -70.6543 67.9199 -71.6797 60.2051 -71.6797 L 32.1289 -71.6797 C 24.4629 -71.6797 18.8965 -70.6543 14.8438 -66.5527 C 10.7422 -62.4512 9.76562 -57.0312 9.76562 -49.2676 L 9.76562 -21.2402 C 9.76562 -13.4766 10.7422 -8.00781 14.8438 -3.95508 C 18.9453 0.146484 24.4629 1.17188 32.1777 1.17188 L 60.2051 1.17188 C 67.9199 1.17188 73.4375 0.146484 77.5391 -3.95508 C 81.6406 -8.05664 82.6172 -13.4766 82.6172 -21.2402 L 82.6172 -49.2676 C 82.6172 -57.0312 81.6406 -62.5 77.5391 -66.5527 Z M 46.1426 -16.3086 C 43.3105 -16.3086 41.4062 -18.3594 41.4062 -21.2402 L 41.4062 -30.4199 L 31.543 -30.4199 C 28.7109 -30.4199 26.6113 -32.3242 26.6113 -35.1562 C 26.6113 -38.0371 28.6621 -39.9414 31.543 -39.9414 L 41.4062 -39.9414 L 41.4062 -49.6094 C 41.4062 -52.4902 43.3105 -54.541 46.1426 -54.541 C 48.9746 -54.541 50.9766 -52.5391 50.9766 -49.6094 L 50.9766 -39.9414 L 60.8398 -39.9414 C 63.7695 -39.9414 65.7715 -38.0371 65.7715 -35.1562 C 65.7715 -32.3242 63.7207 -30.4199 60.8398 -30.4199 L 50.9766 -30.4199 L 50.9766 -21.2402 C 50.9766 -18.3105 48.9746 -16.3086 46.1426 -16.3086 Z"/>
  </g>
  <g id="Semibold-S" transform="matrix(1 0 0 1 1997.54 696)">
   <path d="M 76.8066 -66.3086 C 72.7051 -70.4102 67.041 -71.2402 59.8633 -71.2402 L 31.5918 -71.2402 C 24.4141 -71.2402 18.75 -70.4102 14.6484 -66.3086 C 10.5469 -62.207 9.76562 -56.6406 9.76562 -49.4141 L 9.76562 -21.1426 C 9.76562 -13.916 10.5469 -8.34961 14.6484 -4.24805 C 18.7988 -0.146484 24.4141 0.683594 31.5918 0.683594 L 59.8633 0.683594 C 67.041 0.683594 72.7051 -0.146484 76.8066 -4.24805 C 80.9082 -8.34961 81.6895 -13.916 81.6895 -21.1426 L 81.6895 -49.4141 C 81.6895 -56.6406 80.9082 -62.207 76.8066 -66.3086 Z M 45.7031 -16.2598 C 42.9688 -16.2598 41.3086 -18.2129 41.3086 -20.9961 L 41.3086 -30.7617 L 30.8105 -30.7617 C 28.0273 -30.7617 26.0254 -32.4707 26.0254 -35.1562 C 26.0254 -37.8906 27.9785 -39.6484 30.8105 -39.6484 L 41.3086 -39.6484 L 41.3086 -50.0488 C 41.3086 -52.832 42.9688 -54.7852 45.7031 -54.7852 C 48.3887 -54.7852 50.1953 -52.8809 50.1953 -50.0488 L 50.1953 -39.6484 L 60.6934 -39.6484 C 63.5742 -39.6484 65.4297 -37.8906 65.4297 -35.1562 C 65.4297 -32.4707 63.4766 -30.7617 60.6934 -30.7617 L 50.1953 -30.7617 L 50.1953 -20.9961 C 50.1953 -18.1641 48.3887 -16.2598 45.7031 -16.2598 Z"/>
  </g>
  <g id="Medium-S" transform="matrix(1 0 0 1 1701.17 696)">
   <path d="M 76.2695 -66.1133 C 72.1191 -70.2148 66.4062 -70.8984 59.6191 -70.8984 L 31.1523 -70.8984 C 24.3652 -70.8984 18.6523 -70.2148 14.5508 -66.1133 C 10.4004 -61.9629 9.76562 -56.2988 9.76562 -49.5117 L 9.76562 -21.0449 C 9.76562 -14.2578 10.4004 -8.54492 14.5508 -4.44336 C 18.6523 -0.341797 24.3652 0.341797 31.1523 0.341797 L 59.6191 0.341797 C 66.4062 0.341797 72.1191 -0.341797 76.2695 -4.44336 C 80.3711 -8.59375 81.0059 -14.2578 81.0059 -21.0449 L 81.0059 -49.5117 C 81.0059 -56.2988 80.3711 -62.0117 76.2695 -66.1133 Z M 45.3613 -16.2598 C 42.7246 -16.2598 41.2109 -18.1152 41.2109 -20.8008 L 41.2109 -31.0547 L 30.2246 -31.0547 C 27.5391 -31.0547 25.6348 -32.5684 25.6348 -35.1562 C 25.6348 -37.793 27.4414 -39.4043 30.2246 -39.4043 L 41.2109 -39.4043 L 41.2109 -50.3906 C 41.2109 -53.0762 42.7246 -54.9316 45.3613 -54.9316 C 47.9492 -54.9316 49.5605 -53.125 49.5605 -50.3906 L 49.5605 -39.4043 L 60.5957 -39.4043 C 63.3789 -39.4043 65.1855 -37.793 65.1855 -35.1562 C 65.1855 -32.5684 63.3301 -31.0547 60.5957 -31.0547 L 49.5605 -31.0547 L 49.5605 -20.8008 C 49.5605 -18.0664 47.9492 -16.2598 45.3613 -16.2598 Z"/>
  </g>
  <g id="Regular-S" transform="matrix(1 0 0 1 1404.9 696)">
   <path d="M 75.5371 -65.8203 C 71.3867 -69.9707 65.5762 -70.459 59.2773 -70.459 L 30.6152 -70.459 C 24.3652 -70.459 18.5059 -69.9707 14.3555 -65.8203 C 10.2539 -61.7188 9.76562 -55.9082 9.76562 -49.6582 L 9.76562 -20.9473 C 9.76562 -14.6973 10.2539 -8.88672 14.3555 -4.73633 C 18.5059 -0.634766 24.3164 -0.0976562 30.6152 -0.0976562 L 59.2773 -0.0976562 C 65.5762 -0.0976562 71.3867 -0.634766 75.5371 -4.73633 C 79.6387 -8.88672 80.127 -14.6973 80.127 -20.9473 L 80.127 -49.6094 C 80.127 -55.9082 79.6387 -61.7188 75.5371 -65.8203 Z M 44.9219 -16.2109 C 42.4316 -16.2109 41.1133 -17.9688 41.1133 -20.5566 L 41.1133 -31.3965 L 29.4922 -31.3965 C 26.8555 -31.3965 25.0488 -32.7148 25.0488 -35.1562 C 25.0488 -37.6953 26.7578 -39.0625 29.4922 -39.0625 L 41.1133 -39.0625 L 41.1133 -50.8301 C 41.1133 -53.3691 42.4316 -55.1758 44.9219 -55.1758 C 47.3633 -55.1758 48.7793 -53.4668 48.7793 -50.8301 L 48.7793 -39.0625 L 60.4492 -39.0625 C 63.1836 -39.0625 64.8438 -37.6953 64.8438 -35.1562 C 64.8438 -32.7148 63.0859 -31.3965 60.4492 -31.3965 L 48.7793 -31.3965 L 48.7793 -20.5566 C 48.7793 -17.9199 47.3633 -16.2109 44.9219 -16.2109 Z"/>
  </g>
  <g id="Light-S" transform="matrix(1 0 0 1 1108.87 696)">
   <path d="M 74.3652 -65.332 C 70.6543 -69.043 65.4785 -69.7266 58.7402 -69.7266 L 29.6387 -69.7266 C 23.0957 -69.7266 17.8711 -69.043 14.1602 -65.332 C 10.4492 -61.6211 9.76562 -56.4453 9.76562 -49.9023 L 9.76562 -20.8008 C 9.76562 -14.0137 10.4004 -8.88672 14.1113 -5.17578 C 17.8711 -1.46484 23.0469 -0.78125 29.7852 -0.78125 L 58.7402 -0.78125 C 65.4785 -0.78125 70.6543 -1.46484 74.3652 -5.17578 C 78.125 -8.88672 78.7598 -14.0137 78.7598 -20.8008 L 78.7598 -49.707 C 78.7598 -56.4453 78.125 -61.6211 74.3652 -65.332 Z M 44.1895 -16.1621 C 42.334 -16.1621 41.3086 -17.5293 41.3086 -19.4824 L 41.3086 -32.2754 L 27.9785 -32.2754 C 26.0254 -32.2754 24.6094 -33.3008 24.6094 -35.1562 C 24.6094 -37.1094 25.9277 -38.1836 27.9785 -38.1836 L 41.3086 -38.1836 L 41.3086 -51.5625 C 41.3086 -53.5156 42.334 -54.8828 44.1895 -54.8828 C 46.0938 -54.8828 47.2168 -53.5645 47.2168 -51.5625 L 47.2168 -38.1836 L 60.5469 -38.1836 C 62.5977 -38.1836 63.8672 -37.1094 63.8672 -35.1562 C 63.8672 -33.3008 62.5488 -32.2754 60.5469 -32.2754 L 47.2168 -32.2754 L 47.2168 -19.4824 C 47.2168 -17.4805 46.0938 -16.1621 44.1895 -16.1621 Z"/>
  </g>
  <g id="Thin-S" transform="matrix(1 0 0 1 813.063 696)">
   <path d="M 72.9004 -64.6973 C 69.6777 -67.8711 65.332 -68.7988 58.0078 -68.7988 L 28.3691 -68.7988 C 21.4355 -68.7988 17.041 -67.8223 13.8672 -64.6484 C 10.6934 -61.4746 9.76562 -57.1289 9.76562 -50.1953 L 9.76562 -20.5566 C 9.76562 -13.1836 10.6445 -8.83789 13.8184 -5.71289 C 17.041 -2.53906 21.3867 -1.61133 28.7109 -1.61133 L 58.0078 -1.61133 C 65.332 -1.61133 69.7266 -2.53906 72.9004 -5.71289 C 76.0742 -8.88672 76.9531 -13.1836 76.9531 -20.5566 L 76.9531 -49.8047 C 76.9531 -57.1777 76.0742 -61.5234 72.9004 -64.6973 Z M 43.3105 -16.1621 C 42.2363 -16.1621 41.5527 -16.9922 41.5527 -18.0664 L 41.5527 -33.3984 L 26.0254 -33.3984 C 24.9023 -33.3984 24.0723 -34.1309 24.0723 -35.1562 C 24.0723 -36.2793 24.8535 -37.0117 26.0254 -37.0117 L 41.5527 -37.0117 L 41.5527 -52.5879 C 41.5527 -53.7109 42.2363 -54.541 43.3105 -54.541 C 44.4336 -54.541 45.166 -53.7109 45.166 -52.5879 L 45.166 -37.0117 L 60.6934 -37.0117 C 61.8652 -37.0117 62.6465 -36.2793 62.6465 -35.1562 C 62.6465 -34.1309 61.8164 -33.3984 60.6934 -33.3984 L 45.166 -33.3984 L 45.166 -18.0664 C 45.166 -16.9434 44.4336 -16.1621 43.3105 -16.1621 Z"/>
  </g>
  <g id="Ultralight-S" transform="matrix(1 0 0 1 516.84 696)">
   <path d="M 72.1191 -64.3555 C 69.1406 -67.2363 65.2344 -68.2617 57.6172 -68.2617 L 27.6855 -68.2617 C 20.6055 -68.2617 16.6016 -67.1875 13.7207 -64.3066 C 10.791 -61.377 9.76562 -57.4707 9.76562 -50.3418 L 9.76562 -20.459 C 9.76562 -12.7441 10.7422 -8.83789 13.6719 -6.00586 C 16.6016 -3.07617 20.5078 -2.05078 28.1738 -2.05078 L 57.6172 -2.05078 C 65.2344 -2.05078 69.1895 -3.07617 72.1191 -6.00586 C 75 -8.88672 75.9766 -12.7441 75.9766 -20.459 L 75.9766 -49.9023 C 75.9766 -57.5684 75 -61.4746 72.1191 -64.3555 Z M 42.8223 -16.1133 C 42.1387 -16.1133 41.6504 -16.6504 41.6504 -17.2852 L 41.6504 -33.9844 L 25 -33.9844 C 24.3652 -33.9844 23.7305 -34.5215 23.7305 -35.1562 C 23.7305 -35.8887 24.3164 -36.4258 25 -36.4258 L 41.6504 -36.4258 L 41.6504 -53.125 C 41.6504 -53.8086 42.1387 -54.3457 42.8223 -54.3457 C 43.6035 -54.3457 44.0918 -53.8086 44.0918 -53.125 L 44.0918 -36.4258 L 60.791 -36.4258 C 61.4746 -36.4258 62.0117 -35.8887 62.0117 -35.1562 C 62.0117 -34.5215 61.4258 -33.9844 60.791 -33.9844 L 44.0918 -33.9844 L 44.0918 -17.2852 C 44.0918 -16.6504 43.6035 -16.1133 42.8223 -16.1133 Z"/>
  </g>
 </g>
</svg>
